<?xml version="1.0" encoding="UTF-8"?>
<svg width="3933px" height="3597px" viewBox="0 0 3933 3597" version="1.1" xmlns="http://www.w3.org/2000/svg" xmlns:xlink="http://www.w3.org/1999/xlink">
    <!-- Generator: Sketch 51.3 (57544) - http://www.bohemiancoding.com/sketch -->
    <title>board</title>
    <desc>Created with Sketch.</desc>
    <defs></defs>
    <g id="Page-1" stroke="none" stroke-width="1" fill="none" fill-rule="evenodd">
        <g id="hexes" transform="translate(0.000000, -1002.000000)" fill="#F5DEB3" stroke="#000000" stroke-width="18">
            <polygon id="e5" points="2717.5 1175 3057 1371 3057 1763 2717.5 1959 2378 1763 2378 1371"></polygon>
            <polygon id="e4" points="3056.5 1763 3396 1959 3396 2351 3056.5 2547 2717 2351 2717 1959"></polygon>
            <polygon id="e3" points="3395.5 2351 3735 2547 3735 2939 3395.5 3135 3056 2939 3056 2547"></polygon>
            <polygon id="d5" points="2036.5 1175 2376 1371 2376 1763 2036.5 1959 1697 1763 1697 1371"></polygon>
            <polygon id="d4" points="2375.5 1763 2715 1959 2715 2351 2375.5 2547 2036 2351 2036 1959"></polygon>
            <polygon id="d3" points="2716.5 2350 3056 2546 3056 2938 2716.5 3134 2377 2938 2377 2546"></polygon>
            <polygon id="d2" points="3054.5 2939 3394 3135 3394 3527 3054.5 3723 2715 3527 2715 3135"></polygon>
            <polygon id="c5" points="1355.5 1175 1695 1371 1695 1763 1355.5 1959 1016 1763 1016 1371"></polygon>
            <polygon id="c4" points="1694.5 1763 2034 1959 2034 2351 1694.5 2547 1355 2351 1355 1959"></polygon>
            <polygon id="c3" points="2036.5 2351 2376 2547 2376 2939 2036.5 3135 1697 2939 1697 2547"></polygon>
            <polygon id="c2" points="2375.5 2938 2715 3134 2715 3526 2375.5 3722 2036 3526 2036 3134"></polygon>
            <polygon id="c1" points="2713.5 3527 3053 3723 3053 4115 2713.5 4311 2374 4115 2374 3723"></polygon>
            <polygon id="b4" points="1015.5 1763 1355 1959 1355 2351 1015.5 2547 676 2351 676 1959"></polygon>
            <polygon id="b3" points="1355.5 2350 1695 2546 1695 2938 1355.5 3134 1016 2938 1016 2546"></polygon>
            <polygon id="b2" points="1694.5 2938 2034 3134 2034 3526 1694.5 3722 1355 3526 1355 3134"></polygon>
            <polygon id="b1" points="2034.5 3526 2374 3722 2374 4114 2034.5 4310 1695 4114 1695 3722"></polygon>
            <polygon id="a3" points="678.5 2351 1018 2547 1018 2939 678.5 3135 339 2939 339 2547"></polygon>
            <polygon id="a2" points="1018.5 2938 1358 3134 1358 3526 1018.5 3722 679 3526 679 3134"></polygon>
            <polygon id="a1" points="1357.5 3526 1697 3722 1697 4114 1357.5 4310 1018 4114 1018 3722"></polygon>
        </g>
        <g id="ranks" transform="translate(110.000000, -769.000000)" fill="#000000" font-family="HelveticaNeue, Helvetica Neue" font-size="250" font-weight="normal">
            <text id="1">
                <tspan x="679" y="3762">1</tspan>
            </text>
            <text id="2">
                <tspan x="340" y="3196">2</tspan>
            </text>
            <text id="3">
                <tspan x="0" y="2588">3</tspan>
            </text>
            <text id="4">
                <tspan x="342" y="2011">4</tspan>
            </text>
            <text id="5">
                <tspan x="682" y="1432">5</tspan>
            </text>
        </g>
        <g id="files" transform="translate(1527.000000, 1461.000000)" fill="#000000" font-family="HelveticaNeue, Helvetica Neue" font-size="250" font-weight="normal">
            <text id="a">
                <tspan x="0" y="1948">a</tspan>
            </text>
            <text id="b">
                <tspan x="727" y="1948">b</tspan>
            </text>
            <text id="c">
                <tspan x="1439" y="1941">c</tspan>
            </text>
            <text id="d">
                <tspan x="1716" y="1398">d</tspan>
            </text>
            <text id="e">
                <tspan x="2032" y="828">e</tspan>
            </text>
        </g>
    </g>
</svg>