<?xml version="1.0" encoding="UTF-8"?>
<svg width="261px" height="319px" viewBox="0 0 261 319" version="1.1" xmlns="http://www.w3.org/2000/svg" xmlns:xlink="http://www.w3.org/1999/xlink">
    <!-- Generator: Sketch 51.3 (57544) - http://www.bohemiancoding.com/sketch -->
    <title>Slice 1</title>
    <desc>Created with Sketch.</desc>
    <defs></defs>
    <g id="Page-1" stroke="none" stroke-width="1" fill="none" fill-rule="evenodd">
        <circle id="Oval-2" stroke="#000000" stroke-width="6" fill="#FFFFFF" cx="132.5" cy="161.5" r="112.5"></circle>
        <g id="Group" transform="translate(132.500000, 161.500000) rotate(-60.000000) translate(-132.500000, -161.500000) translate(-12.000000, 59.000000)">
            <g id="shield" transform="translate(144.677715, 102.921428) rotate(60.000000) translate(-144.677715, -102.921428) translate(71.677715, 29.921428)" stroke="#000000" stroke-width="4">
                <ellipse id="Oval" fill="#FFFFFF" fill-rule="nonzero" cx="72.7855398" cy="72.710775" rx="72.7855398" ry="72.710775"></ellipse>
                <ellipse id="Oval" cx="72.7855398" cy="72.710775" rx="64.8246214" ry="64.758034"></ellipse>
                <ellipse id="Oval" cx="72.7855398" cy="72.710775" rx="28.4318515" ry="28.4026465"></ellipse>
                <ellipse id="Oval" transform="translate(27.294577, 71.574669) rotate(-90.000000) translate(-27.294577, -71.574669) " cx="27.2945772" cy="71.5746686" rx="6.82364436" ry="6.81663516"></ellipse>
                <ellipse id="Oval" transform="translate(118.845139, 72.142722) rotate(90.000000) translate(-118.845139, -72.142722) " cx="118.845139" cy="72.142722" rx="6.82364436" ry="6.81663516"></ellipse>
                <ellipse id="Oval" transform="translate(105.638913, 39.489474) rotate(90.000000) translate(-105.638913, -39.489474) " cx="105.638913" cy="39.489474" rx="6.82364436" ry="6.81663516"></ellipse>
                <ellipse id="Oval" transform="translate(41.304977, 39.489474) rotate(90.000000) translate(-41.304977, -39.489474) " cx="41.3049769" cy="39.4894744" rx="6.82364436" ry="6.81663516"></ellipse>
                <ellipse id="Oval" transform="translate(40.098716, 104.962349) rotate(90.000000) translate(-40.098716, -104.962349) " cx="40.098716" cy="104.962349" rx="6.82364436" ry="6.81663516"></ellipse>
                <ellipse id="Oval" transform="translate(105.638913, 104.560675) rotate(90.000000) translate(-105.638913, -104.560675) " cx="105.638913" cy="104.560675" rx="6.82364436" ry="6.81663516"></ellipse>
            </g>
            <g id="spear" transform="translate(144.529966, 102.882912) rotate(60.000000) translate(-144.529966, -102.882912) translate(112.029966, -44.617088)" fill-rule="nonzero">
                <polygon id="Rectangle" stroke="#000000" stroke-width="3.75" fill="#FFFFFF" transform="translate(32.465527, 32.849109) rotate(45.000000) translate(-32.465527, -32.849109) " points="9.78043354 10.1885438 23.9975897 46.9872188 55.1506209 55.5096751 46.6204432 24.3924443"></polygon>
                <rect id="Rectangle-2" stroke="#000000" stroke-width="3.75" fill="#FFFFFF" x="26.3068515" y="54.1122401" width="12.4870242" height="240.51276" rx="6.2435121"></rect>
                <rect id="Rectangle-2" stroke="#000000" stroke-width="3.75" fill="#FFFFFF" x="22.3263923" y="53.5441871" width="21.0328264" height="10.7259741" rx="3.625"></rect>
                <polygon id="Line" fill="#000000" points="26.9907181 261.564745 38.3634587 250.203686 38.3634587 243.103025 26.9907181 255.458176"></polygon>
                <polygon id="Line" fill="#000000" points="26.9907181 242.818998 38.3634587 231.45794 38.3634587 224.357278 26.9907181 236.712429"></polygon>
                <polygon id="Line" fill="#000000" points="26.9907181 279.742439 38.3634587 268.38138 38.3634587 261.280718 26.9907181 273.63587"></polygon>
            </g>
        </g>
    </g>
</svg>