<?xml version="1.0" encoding="UTF-8"?>
<svg width="1706px" height="991px" viewBox="0 0 1706 991" version="1.1" xmlns="http://www.w3.org/2000/svg" xmlns:xlink="http://www.w3.org/1999/xlink">
    <!-- Generator: Sketch 51.3 (57544) - http://www.bohemiancoding.com/sketch -->
    <title>Group 2</title>
    <desc>Created with Sketch.</desc>
    <defs></defs>
    <g id="Page-1" stroke="none" stroke-width="1" fill="none" fill-rule="evenodd">
        <g id="Group-2" transform="translate(4.000000, 5.000000)" stroke="#000000" stroke-width="8">
            <g id="hexes">
                <polygon id="Polygon" fill="#F5DEB3" points="509.832926 295 679.665852 393 679.665852 589 509.832926 687 340 589 340 393"></polygon>
                <polygon id="Polygon" fill="#F5DEB3" points="170.334148 294.5 340.167074 392.5 340.167074 588.5 170.334148 686.5 0.501221299 588.5 0.501221299 392.5"></polygon>
                <polygon id="Polygon" fill="#F5DEB3" points="339.916952 0.5 509.749878 98.5 509.749878 294.5 339.916952 392.5 170.084025 294.5 170.084025 98.5"></polygon>
                <polygon id="Polygon" fill="#F5DEB3" points="679.582804 0.5 849.41573 98.5 849.41573 294.5 679.582804 392.5 509.749878 294.5 509.749878 98.5"></polygon>
                <polygon id="Polygon" fill="#FFFFFF" points="1188.83293 295 1358.66585 393 1358.66585 589 1188.83293 687 1019 589 1019 393"></polygon>
                <polygon id="Polygon" fill="#FFFFFF" points="1527.83293 295 1697.66585 393 1697.66585 589 1527.83293 687 1358 589 1358 393"></polygon>
                <polygon id="Polygon" fill="#F5DEB3" points="340.417196 588.5 510.250122 686.5 510.250122 882.5 340.417196 980.5 170.58427 882.5 170.58427 686.5"></polygon>
                <polygon id="Polygon" fill="#F5DEB3" points="680.083048 588.5 849.915975 686.5 849.915975 882.5 680.083048 980.5 510.250122 882.5 510.250122 686.5"></polygon>
                <polygon id="Polygon" fill="#F5DEB3" points="1019.83293 589 1189.66585 687 1189.66585 883 1019.83293 981 850 883 850 687"></polygon>
                <polygon id="Polygon" fill="#F5DEB3" points="1358.83293 589 1528.66585 687 1528.66585 883 1358.83293 981 1189 883 1189 687"></polygon>
                <polygon id="Polygon" fill="#F5DEB3" points="1018.83293 1 1188.66585 99 1188.66585 295 1018.83293 393 849 295 849 99"></polygon>
                <polygon id="Polygon" fill="#F5DEB3" points="1357.83293 1 1527.66585 99 1527.66585 295 1357.83293 393 1188 295 1188 99"></polygon>
                <polygon id="Polygon" fill="#FFFFFF" points="849.832926 295 1019.66585 393 1019.66585 589 849.832926 687 680 589 680 393"></polygon>
            </g>
            <polygon id="check" fill="#00C513" transform="translate(849.767953, 476.500000) rotate(45.000000) translate(-849.767953, -476.500000) " points="813 523.012077 858.562102 523.012077 858.562102 402 886.535906 402 886.535906 551 813 551"></polygon>
            <polygon id="check" fill="#00C513" transform="translate(1188.767953, 476.500000) rotate(45.000000) translate(-1188.767953, -476.500000) " points="1152 523.012077 1197.5621 523.012077 1197.5621 402 1225.53591 402 1225.53591 551 1152 551"></polygon>
            <polygon id="check" fill="#00C513" transform="translate(1527.767953, 476.500000) rotate(45.000000) translate(-1527.767953, -476.500000) " points="1491 523.012077 1536.5621 523.012077 1536.5621 402 1564.53591 402 1564.53591 551 1491 551"></polygon>
            <polygon id="orientation" fill="#FFFFFF" transform="translate(619.500000, 490.500000) rotate(-30.000000) translate(-619.500000, -490.500000) " points="619.5 458 647.645826 506.75 591.354174 506.75"></polygon>
            <polygon id="archer" fill="#FFFFFF" transform="translate(510.000000, 491.000000) rotate(-30.000000) translate(-510.000000, -491.000000) " points="510 414 576.683956 529.5 443.316044 529.5"></polygon>
        </g>
    </g>
</svg>