<?xml version="1.0" encoding="UTF-8"?>
<svg width="1132px" height="1058px" viewBox="0 0 1132 1058" version="1.1" xmlns="http://www.w3.org/2000/svg" xmlns:xlink="http://www.w3.org/1999/xlink">
    <!-- Generator: Sketch 51.3 (57544) - http://www.bohemiancoding.com/sketch -->
    <title>attack-diagrams</title>
    <desc>Created with Sketch.</desc>
    <defs></defs>
    <g id="Page-1" stroke="none" stroke-width="1" fill="none" fill-rule="evenodd">
        <g id="hexes" transform="translate(11.000000, 34.000000)" stroke="#000000" stroke-width="8">
            <polygon id="Polygon" fill="#F5DEB3" points="548.832926 295 718.665852 393 718.665852 589 548.832926 687 379 589 379 393"></polygon>
            <polygon id="Polygon" fill="#F5DEB3" points="209.334148 294.5 379.167074 392.5 379.167074 588.5 209.334148 686.5 39.5012213 588.5 39.5012213 392.5"></polygon>
            <polygon id="Polygon" fill="#F5DEB3" points="378.916952 0.5 548.749878 98.5 548.749878 294.5 378.916952 392.5 209.084025 294.5 209.084025 98.5"></polygon>
            <polygon id="Polygon" fill="#FFFFFF" points="718.582804 0.5 888.41573 98.5 888.41573 294.5 718.582804 392.5 548.749878 294.5 548.749878 98.5"></polygon>
            <polygon id="Polygon" fill="#F5DEB3" points="379.417196 588.5 549.250122 686.5 549.250122 882.5 379.417196 980.5 209.58427 882.5 209.58427 686.5"></polygon>
            <polygon id="Polygon" fill="#FFFFFF" points="718.832926 589 888.665852 687 888.665852 883 718.832926 981 549 883 549 687"></polygon>
            <polygon id="Polygon" fill="#FFFFFF" points="888.832926 295 1058.66585 393 1058.66585 589 888.832926 687 719 589 719 393"></polygon>
        </g>
        <rect id="knight" stroke="#000000" stroke-width="8" fill="#FFFFFF" x="499" y="464" width="122" height="122"></rect>
        <polygon id="orientation" stroke="#000000" stroke-width="8" fill="#FFFFFF" transform="translate(667.395826, 524.395826) rotate(-30.000000) translate(-667.395826, -524.395826) " points="667.395826 491.895826 695.541651 540.645826 639.25 540.645826"></polygon>
    </g>
</svg>